# xmcd
#
# Track frame offsets: 
#        150
#        24656
#        50678
#        78200
#        103990
#        125524
#        146262
#        167992
#        186198
#
# Disc length: 2759 seconds
#
# Revision: 1
# Processed by: cddbd v1.5.2PL0 Copyright (c) Steve Scherf et al.
# Submitted via: ExactAudioCopy v0.99pb4
#
DISCID=7a0ac509
DTITLE=Luggnutt - Pleasing U Pleases Me
DYEAR=2009
DGENRE=Jazz
TTITLE0=Your Eye'z
TTITLE1=i Can't Wait
TTITLE2=Pleasing U Pleases Me
TTITLE3=Your Hand'z
TTITLE4=S.E.X. Play
TTITLE5=Opera Beat of Love
TTITLE6=On My Mind
TTITLE7=Touch and Flow
TTITLE8=Tus labios
EXTD=YEAR: 2009
EXTT0=
EXTT1=
EXTT2=
EXTT3=
EXTT4=
EXTT5=
EXTT6=
EXTT7=
EXTT8=
PLAYORDER=
